<?xml version="1.0" encoding="utf-8"?>
<!-- Generator: Adobe Illustrator 16.0.0, SVG Export Plug-In . SVG Version: 6.00 Build 0)  -->
<!DOCTYPE svg PUBLIC "-//W3C//DTD SVG 1.1//EN" "http://www.w3.org/Graphics/SVG/1.1/DTD/svg11.dtd">
<svg version="1.1" xmlns="http://www.w3.org/2000/svg" xmlns:xlink="http://www.w3.org/1999/xlink" x="0px" y="0px" width="512px"
	 height="512px" viewBox="0 0 512 512" enable-background="new 0 0 512 512" xml:space="preserve">
<g id="Calque_2_1_" display="none">
	<rect x="-74.5" y="-45.5" display="inline" fill="#000E22" width="666" height="626"/>
</g>
<g id="Calque_1">
	<g id="Calque_2" display="none">
		<rect x="-11.5" y="-5.5" display="inline" fill="#3B9E00" stroke="#000000" stroke-miterlimit="10" width="575" height="553"/>
	</g>
	<g id="Calque_3">
	</g>
	<path fill="#E32948" d="M255.991,300.744c24.657,0,44.761-20.067,44.761-44.744c0-9.741-3.188-18.735-8.463-26.081
		c-8.128-11.271-21.346-18.663-36.271-18.663c-14.936,0-28.142,7.382-36.29,18.654c-5.294,7.346-8.454,16.34-8.463,26.081
		C211.239,280.667,231.324,300.744,255.991,300.744z"/>
	<polygon fill="#E32948" points="353.697,201.264 353.697,163.759 353.697,158.177 348.089,158.195 310.602,158.312 
		310.745,201.408 	"/>
	<path fill="#E32948" d="M256,0C114.615,0,0,114.615,0,256s114.615,256,256,256s256-114.615,256-256S397.385,0,256,0z
		 M383.109,229.919L383.109,229.919l-0.001,104.071c0,27.107-22.038,49.136-49.128,49.136H178.019
		c-27.098,0-49.127-22.028-49.127-49.136V229.919v-51.891c0-27.098,22.029-49.128,49.127-49.128h155.954
		c27.099,0,49.137,22.03,49.137,49.128V229.919z"/>
	<path fill="#E32948" d="M325.527,256c0,38.323-31.186,69.527-69.527,69.527S186.481,294.323,186.481,256
		c0-9.219,1.836-18.032,5.113-26.081h-37.946V333.99c0,13.449,10.92,24.343,24.361,24.343h155.953
		c13.423,0,24.361-10.894,24.361-24.343V229.919H320.36C323.664,237.968,325.527,246.781,325.527,256z"/>
</g>
</svg>
