<?xml version="1.0" encoding="utf-8"?>
<!-- Generator: Adobe Illustrator 16.0.0, SVG Export Plug-In . SVG Version: 6.00 Build 0)  -->
<!DOCTYPE svg PUBLIC "-//W3C//DTD SVG 1.1//EN" "http://www.w3.org/Graphics/SVG/1.1/DTD/svg11.dtd">
<svg version="1.1" xmlns="http://www.w3.org/2000/svg" xmlns:xlink="http://www.w3.org/1999/xlink" x="0px" y="0px" width="512px"
	 height="512px" viewBox="0 0 512 512" enable-background="new 0 0 512 512" xml:space="preserve">
<g id="Calque_2" display="none">
	<rect x="-11.5" y="-5.5" display="inline" fill="#3B9E00" stroke="#000000" stroke-miterlimit="10" width="575" height="553"/>
</g>
<g id="Calque_3">
</g>
<g id="Capa_1">
	<g>
		<path fill="#FFFFFF" d="M256,0C114.615,0,0,114.615,0,256s114.615,256,256,256s256-114.615,256-256S397.385,0,256,0z M256,479.5
			C132.763,479.5,32.5,379.229,32.5,256C32.5,132.763,132.763,32.5,256,32.5c123.246,0,223.5,100.263,223.5,223.5
			C479.5,379.229,379.229,479.5,256,479.5z"/>
		<path fill="#FFFFFF" d="M255.991,300.744c24.658,0,44.761-20.067,44.761-44.744c0-9.741-3.187-18.735-8.463-26.081
			c-8.128-11.271-21.345-18.663-36.271-18.663c-14.936,0-28.142,7.382-36.29,18.654c-5.294,7.346-8.454,16.34-8.463,26.081
			C211.239,280.667,231.324,300.744,255.991,300.744z"/>
		<polygon fill="#FFFFFF" points="353.697,201.264 353.697,163.759 353.697,158.177 348.089,158.195 310.602,158.312 
			310.745,201.408 		"/>
		<path fill="#FFFFFF" d="M256,32.5C132.763,32.5,32.5,132.763,32.5,256c0,123.229,100.263,223.5,223.5,223.5
			c123.229,0,223.5-100.271,223.5-223.5C479.5,132.763,379.246,32.5,256,32.5z M383.108,229.919V333.99
			c0,27.107-22.038,49.136-49.128,49.136H178.019c-27.098,0-49.127-22.028-49.127-49.136V229.919v-51.891
			c0-27.098,22.029-49.128,49.127-49.128h155.954c27.098,0,49.136,22.03,49.136,49.128V229.919z"/>
		<path fill="#FFFFFF" d="M325.527,256c0,38.323-31.185,69.527-69.527,69.527c-38.342,0-69.519-31.204-69.519-69.527
			c0-9.219,1.836-18.032,5.113-26.081h-37.946V333.99c0,13.449,10.92,24.343,24.361,24.343h155.953
			c13.423,0,24.361-10.894,24.361-24.343V229.919H320.36C323.664,237.968,325.527,246.781,325.527,256z"/>
	</g>
</g>
</svg>
