<?xml version="1.0" encoding="utf-8"?>
<!-- Generator: Adobe Illustrator 16.0.0, SVG Export Plug-In . SVG Version: 6.00 Build 0)  -->
<!DOCTYPE svg PUBLIC "-//W3C//DTD SVG 1.1//EN" "http://www.w3.org/Graphics/SVG/1.1/DTD/svg11.dtd">
<svg version="1.1" id="Capa_1" xmlns="http://www.w3.org/2000/svg" xmlns:xlink="http://www.w3.org/1999/xlink" x="0px" y="0px"
	 width="512px" height="512px" viewBox="0 0 512 512" enable-background="new 0 0 512 512" xml:space="preserve">
<g>
	<path fill="#2D29E3" d="M256,0C114.603,0,0,114.613,0,256c0,141.393,114.603,256,256,256c141.387,0,256-114.607,256-256
		C512,114.613,397.387,0,256,0z M360.112,209.717c0.106,2.166,0.144,4.341,0.144,6.528c0,66.63-50.72,143.462-143.456,143.462
		c-28.469,0-54.971-8.353-77.28-22.662c3.936,0.475,7.947,0.71,12.021,0.71c23.626,0,45.365-8.06,62.624-21.589
		c-22.064-0.4-40.688-14.982-47.104-35.009c3.083,0.581,6.24,0.907,9.488,0.907c4.592,0,9.051-0.619,13.28-1.771
		c-23.061-4.635-40.448-25.008-40.448-49.445c0-0.213,0-0.421,0.011-0.629c6.789,3.776,14.571,6.042,22.832,6.309
		c-13.531-9.045-22.427-24.475-22.427-41.973c0-9.237,2.48-17.894,6.821-25.344c24.864,30.507,62.021,50.576,103.925,52.683
		c-0.864-3.691-1.302-7.542-1.302-11.494c0-27.845,22.571-50.416,50.416-50.416c14.502,0,27.605,6.123,36.801,15.92
		c11.487-2.261,22.282-6.453,32.021-12.234c-3.771,11.771-11.761,21.659-22.166,27.893c10.197-1.221,19.915-3.925,28.96-7.936
		C378.522,193.728,369.968,202.613,360.112,209.717z"/>
</g>
</svg>
